<svg width="128.125" height="71.094" viewBox="0 0 128.125 71.094" xmlns="http://www.w3.org/2000/svg"><g id="svgGroup" stroke-linecap="round" fill-rule="evenodd" font-size="9pt" stroke="#000" stroke-width="0.25mm" fill="#fff" style="stroke:#fff;stroke-width:0.25mm;fill:#fff"><path d="M 84.521 71.094 L 61.279 71.094 L 61.279 64.941 L 67.432 63.867 L 89.453 35.01 L 69.043 7.275 L 62.842 6.201 L 62.842 0 L 85.889 0 L 85.889 6.201 L 79.199 6.836 L 94.922 28.76 L 109.863 6.836 L 103.027 6.201 L 103.027 0 L 126.221 0 L 126.221 6.201 L 119.727 7.275 L 100.439 35.01 L 121.826 63.867 L 128.125 64.941 L 128.125 71.094 L 104.785 71.094 L 104.785 64.941 L 111.67 64.307 L 94.824 41.211 L 78.027 64.307 L 84.521 64.941 L 84.521 71.094 Z M 25.537 71.094 L 0 71.094 L 0 64.941 L 7.959 63.574 L 7.959 7.568 L 0 6.201 L 0 0 L 53.467 0 L 53.467 17.09 L 45.752 17.09 L 44.678 7.471 L 17.578 7.471 L 17.578 32.08 L 43.604 32.08 L 43.604 39.648 L 17.578 39.648 L 17.578 63.574 L 25.537 64.941 L 25.537 71.094 Z" vector-effect="non-scaling-stroke"/></g></svg>

